<svg width="500" height="500" viewBox="0 0 500 500" fill="none" xmlns="http://www.w3.org/2000/svg">
<rect width="500" height="500" fill="#E9CFD2"/>
<path fill-rule="evenodd" clip-rule="evenodd" d="M215.754 294.508C241.912 294.508 264.845 280.703 277.667 259.982C271.274 262.751 264.215 264.287 256.794 264.287C240.325 264.287 225.636 256.721 216.062 244.9C213.711 250.586 208.111 254.586 201.576 254.586C192.921 254.586 185.906 247.57 185.906 238.916C185.906 230.261 192.921 223.246 201.576 223.246C203.048 223.246 204.474 223.449 205.825 223.829C204.997 220.163 204.56 216.351 204.56 212.438C204.56 211.538 204.586 210.614 204.636 209.714L282.46 192.666C271.236 166.964 245.593 149 215.754 149C175.573 149 143 181.573 143 221.754C143 261.935 175.573 294.508 215.754 294.508ZM193.368 238.916C193.368 234.383 197.043 230.708 201.576 230.708C206.109 230.708 209.784 234.383 209.784 238.916C209.784 243.449 206.109 247.124 201.576 247.124C197.043 247.124 193.368 243.449 193.368 238.916ZM242.209 170.409L240.224 167.706L242.142 172.314C243.286 174.698 243.761 177.347 243.518 179.979L243.316 182.17C242.866 187.047 245.246 191.745 249.427 194.271C249.456 194.289 249.486 194.252 249.462 194.228C246.53 191.169 245.069 186.988 245.458 182.768L245.603 181.192C245.963 177.288 244.74 173.403 242.209 170.409ZM248.301 176.624L249.465 178.208C250.949 179.963 251.666 182.241 251.454 184.529L251.369 185.453C251.141 187.927 251.997 190.378 253.717 192.171C253.73 192.185 253.713 192.207 253.696 192.196C251.245 190.716 249.85 187.962 250.114 185.103L250.232 183.818C250.375 182.275 250.096 180.722 249.426 179.325L248.301 176.624Z" fill="#1F1F27"/>
<mask id="mask0_277_29" style="mask-type:luminance" maskUnits="userSpaceOnUse" x="295" y="205" width="62" height="45">
<path d="M295.896 205.97H356.488V249.602H295.896V205.97Z" fill="white"/>
</mask>
<g mask="url(#mask0_277_29)">
<path d="M321.029 236.031C322.499 232.832 321.682 229.837 320.138 226.976C319.67 226.114 318.679 225.98 317.704 225.828C308.8 224.406 307.949 222.239 306.038 218.83C303.981 215.159 303.919 213.422 301.654 212.892C300.566 212.642 299.575 211.849 298.329 212.409C298.109 212.508 297.247 212.362 297.202 211.599C297.157 210.894 297.27 210.235 297.985 209.944C299.017 209.53 300.065 209.145 301.192 209.163C304.742 209.215 305.261 206.692 306.534 208.813C309.651 214.011 306.433 210.934 311.116 217.816C312.209 219.413 313.934 219.092 315.455 218.941C317.94 218.696 319.997 217.35 321.902 215.771C322.483 215.293 323.108 214.769 322.595 213.795C322.364 213.37 322.573 212.968 323.029 212.776C324.444 212.181 325.126 210.917 325.667 209.588C326.596 207.316 328.084 211.966 330.845 208.301C332.305 206.36 334.683 205.97 336.605 207.438C338.476 208.866 340.274 210.398 342.511 211.22C343.305 211.517 343.677 212.175 343.61 213.079C343.379 216.173 346.005 215.194 347.053 217.56C347.656 218.912 349.307 219.663 349.363 221.237C349.431 223.183 350.243 224.972 350.259 226.883C350.282 228.66 350.975 230.105 351.967 231.463C351.99 231.9 352.125 232.302 352.378 232.64C354.114 234.959 354.244 237.744 354.497 240.489C354.678 242.523 356.092 243.74 354.424 244.702C354.204 244.83 354.159 245.11 354.289 245.343C354.751 246.182 354.08 246.345 353.607 246.677C352.948 247.132 352.232 246.992 351.601 246.811C351.167 246.689 351.296 246.071 351.494 245.704C353.489 241.94 352.508 238.385 350.682 234.965C350.102 233.875 349.718 232.657 348.89 231.708C348.563 230.047 346.963 229.453 346.185 227.961C345.436 229.429 345.751 230.746 345.796 232.04C345.165 235.857 348.231 235.787 345.796 238.747C344.968 239.755 344.252 240.856 343.418 241.858C341.615 244.038 342.95 245.751 340.6 246.403C339.541 246.695 338.188 248.099 337.428 246.468C337.146 245.867 337.687 245.64 338.126 245.459C339.62 244.848 339.795 243.735 342.263 240.454C343.801 238.409 343.813 234.528 342.404 232.436C342.364 232.29 342.325 232.145 342.285 231.999L342.359 231.888L342.274 231.789C341.97 230.338 341.181 229.033 341.108 227.495C341.085 227.034 340.916 226.463 340.071 226.836C336.25 228.555 332.091 229.08 329.589 228.783C329.014 228.718 328.8 229.033 328.603 229.552C327.898 231.376 328.349 232.914 329.566 234.301C330.721 235.897 330.637 237.931 331.33 239.691C331.967 241.287 332.356 242.977 333.252 244.492C335.078 247.598 329.701 248.723 330.755 246.695C331.567 245.133 331.071 243.7 330.62 242.208C329.938 239.959 329.042 237.826 327.712 235.903C327.453 235.524 327.256 235.041 326.709 234.988C326.36 233.042 324.996 231.696 323.998 230.129C323.998 231.859 323.998 233.584 323.998 235.315C323.779 236.055 323.486 236.76 323.841 237.581C324.083 238.147 323.97 238.758 323.514 239.254C322.55 240.285 322.268 246.042 321.964 248.699C321.801 250.109 320.662 249.259 320.403 249.2C317.354 248.53 320.442 248.07 320.719 245.832C321.795 236.987 321.417 238.56 321.029 236.031Z" fill="#1F1F27"/>
</g>
<mask id="mask1_277_29" style="mask-type:luminance" maskUnits="userSpaceOnUse" x="281" y="224" width="14" height="26">
<path d="M281.868 224.615H294.452V249.602H281.868V224.615Z" fill="white"/>
</mask>
<g mask="url(#mask1_277_29)">
<path d="M288.699 232.476C288.394 231.224 288.045 230.105 287.059 229.219C286.546 228.765 286.174 228.112 287.031 227.448C287.735 226.9 287.504 226.265 286.817 225.904C284.681 224.791 281.869 226.096 282.286 226.813C282.849 227.78 282.325 229.336 283.695 229.819C284.326 230.041 284.348 230.443 284.202 230.915C283.441 233.415 283.593 236.013 283.362 238.572C284.258 244.084 284.297 245.121 285.132 246.147C285.723 246.869 285.988 247.912 284.889 248.652C284.658 248.81 284.433 249.037 284.472 249.392C287.183 249.713 287.369 249.585 287.38 246.828C287.386 245.914 287.611 245.447 288.552 245.523C289.905 245.634 290.88 245.121 291.533 246.333C292.024 247.254 291.359 247.65 291.049 248.209C291.922 249.153 292.711 248.507 293.393 248.052C294.131 247.563 293.596 246.869 293.387 246.281C289.798 235.862 289.274 234.836 288.699 232.476Z" fill="#1F1F27"/>
</g>
<path d="M307.77 221.201C306.907 228.108 299.999 241.145 289.639 238.037" stroke="#1F1F27" stroke-width="0.518037" stroke-linejoin="bevel"/>
<path d="M83.7233 360.571H63.2882C60.6868 360.571 58.8271 359.937 57.6984 358.647C56.5697 357.368 56 355.658 56 353.508V329.677C56 327.494 56.5697 325.764 57.6984 324.484C58.8271 323.205 60.6868 322.56 63.2882 322.56H83.39V329.956H64.245V353.164H83.7233V360.56V360.571ZM82.1968 345.274H62.3208L61.2458 337.879H82.1968V345.274Z" fill="#1F1F27"/>
<path d="M125.336 331.611C128.389 331.611 130.915 332.267 132.925 333.589C134.935 334.911 136.462 336.642 137.494 338.781C138.526 340.92 139.042 343.318 139.042 345.951V360.571H131.022V347.306C131.022 345.833 130.807 344.511 130.377 343.328C129.947 342.146 129.27 341.189 128.346 340.48C127.421 339.76 126.228 339.405 124.766 339.405C123.304 339.405 122.111 339.749 121.208 340.448C120.305 341.146 119.639 342.081 119.198 343.275C118.768 344.457 118.553 345.769 118.553 347.198V360.582H110.534V347.252C110.534 345.779 110.329 344.457 109.91 343.275C109.491 342.092 108.814 341.146 107.879 340.448C106.933 339.749 105.75 339.405 104.32 339.405C102.815 339.405 101.611 339.76 100.709 340.48C99.8055 341.2 99.1498 342.146 98.7306 343.328C98.3113 344.511 98.1071 345.822 98.1071 347.252V360.582H90.0879V345.962C90.0879 343.361 90.5931 340.985 91.6143 338.814C92.6355 336.642 94.1405 334.911 96.1614 333.589C98.1716 332.267 100.687 331.611 103.697 331.611C106.105 331.611 108.19 332.052 109.932 332.934C111.684 333.815 113.038 335.04 113.995 336.599C114.952 338.158 115.457 339.975 115.489 342.049H113.683C113.716 339.975 114.253 338.158 115.263 336.599C116.285 335.04 117.65 333.815 119.381 332.934C121.111 332.052 123.089 331.611 125.314 331.611H125.336Z" fill="#1F1F27"/>
<path d="M150.918 328.44C150.015 328.44 149.177 328.225 148.403 327.795C147.629 327.365 147.027 326.763 146.597 325.989C146.167 325.215 145.952 324.377 145.952 323.474C145.952 322.571 146.167 321.743 146.597 320.991C147.027 320.238 147.629 319.636 148.403 319.185C149.177 318.733 150.015 318.508 150.918 318.508C151.821 318.508 152.649 318.733 153.402 319.185C154.154 319.636 154.745 320.238 155.175 320.991C155.605 321.743 155.82 322.571 155.82 323.474C155.82 324.377 155.605 325.215 155.175 325.989C154.745 326.763 154.154 327.365 153.402 327.795C152.649 328.225 151.821 328.44 150.918 328.44ZM146.909 332.622H154.928V360.571H146.909V332.622Z" fill="#1F1F27"/>
<path d="M170.785 360.571H162.766V344.533C162.766 342.125 163.217 339.964 164.12 338.072C165.023 336.169 166.399 334.665 168.237 333.557C170.086 332.45 172.376 331.891 175.128 331.891C176.074 331.891 176.987 331.977 177.89 332.149C178.793 332.321 179.6 332.558 180.32 332.859V340.652C179.643 340.244 178.912 339.932 178.116 339.749C177.321 339.566 176.568 339.47 175.859 339.47C174.278 339.47 173.031 339.953 172.129 340.91C171.226 341.867 170.774 343.178 170.774 344.834V360.582L170.785 360.571Z" fill="#1F1F27"/>
<path d="M196.648 361.302C193.939 361.302 191.542 360.635 189.478 359.302C187.404 357.969 185.78 356.174 184.598 353.938C183.415 351.702 182.813 349.219 182.813 346.51C182.813 343.802 183.48 341.383 184.824 339.147C186.157 336.911 187.963 335.116 190.241 333.783C192.52 332.45 195.09 331.783 197.949 331.783C200.808 331.783 203.442 332.428 205.742 333.729C208.043 335.03 209.849 336.782 211.16 338.975C212.482 341.179 213.138 343.694 213.138 346.51V360.571H205.517V350.466L207.946 349.789C207.946 351.971 207.473 353.938 206.538 355.691C205.592 357.443 204.302 358.819 202.646 359.808C200.991 360.807 198.992 361.302 196.659 361.302H196.648ZM197.949 353.799C199.336 353.799 200.572 353.465 201.647 352.81C202.722 352.154 203.571 351.272 204.184 350.187C204.796 349.101 205.119 347.886 205.119 346.575C205.119 345.263 204.807 344.06 204.184 342.963C203.56 341.877 202.711 340.996 201.647 340.34C200.572 339.684 199.336 339.351 197.949 339.351C196.562 339.351 195.38 339.684 194.305 340.34C193.23 340.996 192.381 341.877 191.768 342.963C191.144 344.06 190.833 345.263 190.833 346.575C190.833 347.886 191.144 349.101 191.768 350.187C192.391 351.283 193.241 352.154 194.305 352.81C195.369 353.465 196.594 353.799 197.949 353.799Z" fill="#1F1F27"/>
<path d="M240.067 339.394H217.03V332.622H240.067V339.394ZM234.251 361.366C231.574 361.366 229.349 360.872 227.565 359.872C225.78 358.872 224.426 357.486 223.523 355.691C222.62 353.906 222.169 351.842 222.169 349.509V325.516H230.188V349.284C230.188 350.832 230.618 352.036 231.489 352.896C232.348 353.766 233.52 354.196 234.993 354.196C235.821 354.196 236.702 354.089 237.648 353.863C238.594 353.637 239.4 353.293 240.077 352.842V360.012C239.357 360.431 238.465 360.754 237.39 361.001C236.315 361.248 235.272 361.366 234.251 361.366Z" fill="#1F1F27"/>
<path d="M259.372 361.302C256.469 361.302 253.868 360.668 251.557 359.41C249.246 358.152 247.429 356.4 246.107 354.164C244.785 351.928 244.129 349.316 244.129 346.349C244.129 343.672 244.742 341.221 245.967 338.986C247.193 336.75 248.891 334.954 251.073 333.622C253.255 332.289 255.781 331.611 258.641 331.611C261.5 331.611 264.134 332.256 266.209 333.557C268.283 334.858 269.874 336.578 270.981 338.728C272.089 340.877 272.648 343.221 272.648 345.79V348.166H250.514L251.761 346.188C251.686 347.768 251.955 349.176 252.578 350.423C253.202 351.67 254.083 352.638 255.233 353.336C256.383 354.035 257.749 354.379 259.329 354.379C260.909 354.379 262.199 354.024 263.424 353.304C264.65 352.584 265.574 351.595 266.219 350.316L272.379 353.422C271.175 355.948 269.455 357.894 267.208 359.27C264.972 360.646 262.36 361.334 259.383 361.334L259.372 361.302ZM252.202 343.694H264.682C264.575 342.716 264.241 341.845 263.693 341.071C263.145 340.297 262.436 339.695 261.576 339.265C260.705 338.835 259.716 338.62 258.587 338.62C257.458 338.62 256.394 338.846 255.513 339.297C254.631 339.749 253.911 340.362 253.363 341.135C252.815 341.909 252.428 342.759 252.202 343.705V343.694Z" fill="#1F1F27"/>
<path d="M290.932 361.302C288.224 361.302 285.826 360.635 283.762 359.302C281.688 357.969 280.065 356.174 278.882 353.938C277.7 351.702 277.098 349.219 277.098 346.51C277.098 343.802 277.764 341.383 279.108 339.147C280.441 336.911 282.247 335.116 284.526 333.783C286.805 332.45 289.374 331.783 292.233 331.783C295.092 331.783 297.726 332.428 300.027 333.729C302.327 335.03 304.133 336.782 305.444 338.975C306.767 341.179 307.422 343.694 307.422 346.51V360.571H299.801V350.466L302.23 349.789C302.23 351.971 301.757 353.938 300.822 355.691C299.876 357.443 298.586 358.819 296.931 359.808C295.275 360.807 293.276 361.302 290.943 361.302H290.932ZM292.233 353.799C293.62 353.799 294.856 353.465 295.931 352.81C297.006 352.154 297.855 351.272 298.468 350.187C299.081 349.101 299.403 347.886 299.403 346.575C299.403 345.263 299.091 344.06 298.468 342.963C297.844 341.877 296.995 340.996 295.931 340.34C294.856 339.684 293.62 339.351 292.233 339.351C290.846 339.351 289.664 339.684 288.589 340.34C287.514 340.996 286.665 341.877 286.052 342.963C285.429 344.06 285.117 345.263 285.117 346.575C285.117 347.886 285.429 349.101 286.052 350.187C286.676 351.283 287.525 352.154 288.589 352.81C289.653 353.465 290.879 353.799 292.233 353.799Z" fill="#1F1F27"/>
<path d="M342.639 361.141C340.08 361.141 337.683 360.646 335.437 359.647C333.201 358.647 331.234 357.26 329.535 355.465C327.837 353.681 326.493 351.617 325.493 349.284C324.493 346.951 323.999 344.425 323.999 341.716C323.999 339.007 324.493 336.492 325.493 334.181C326.493 331.87 327.837 329.827 329.535 328.053C331.234 326.28 333.19 324.915 335.437 323.936C337.673 322.958 340.08 322.464 342.639 322.464C344.671 322.464 346.605 322.786 348.454 323.42C350.303 324.055 351.969 324.968 353.474 326.161C354.979 327.344 356.226 328.774 357.205 330.429L355.571 331.504C354.173 329.247 352.303 327.505 349.949 326.28C347.594 325.054 345.143 324.442 342.585 324.442C340.36 324.442 338.253 324.872 336.264 325.742C334.265 326.613 332.523 327.838 331.019 329.44C329.514 331.042 328.331 332.891 327.46 334.998C326.59 337.105 326.16 339.341 326.16 341.716C326.16 344.092 326.59 346.382 327.46 348.488C328.32 350.595 329.514 352.455 331.019 354.046C332.523 355.648 334.276 356.884 336.264 357.776C338.264 358.658 340.371 359.098 342.585 359.098C345.143 359.098 347.605 358.486 349.949 357.26C352.303 356.035 354.173 354.293 355.571 352.036L357.205 353.111C356.226 354.766 354.979 356.185 353.474 357.378C351.969 358.561 350.293 359.485 348.454 360.141C346.616 360.797 344.671 361.13 342.639 361.13V361.141Z" fill="#1F1F27"/>
<path d="M375.951 361.022C373.35 361.022 370.995 360.388 368.867 359.13C366.739 357.873 365.062 356.153 363.847 353.992C362.622 351.832 362.009 349.445 362.009 346.854C362.009 344.264 362.632 341.996 363.868 339.856C365.115 337.707 366.792 335.997 368.921 334.718C371.049 333.439 373.446 332.794 376.123 332.794C378.8 332.794 381.143 333.417 383.261 334.654C385.389 335.901 387.077 337.599 388.345 339.76C389.603 341.92 390.237 344.285 390.237 346.844V360.56H388.313V349.886L389.496 347.349C389.496 349.832 388.904 352.122 387.722 354.207C386.539 356.293 384.927 357.948 382.895 359.173C380.864 360.399 378.552 361.012 375.951 361.012V361.022ZM376.123 359.109C378.38 359.109 380.423 358.561 382.25 357.475C384.078 356.379 385.529 354.917 386.625 353.068C387.711 351.219 388.259 349.176 388.259 346.908C388.259 344.64 387.711 342.662 386.625 340.835C385.529 339.007 384.078 337.545 382.25 336.427C380.423 335.32 378.38 334.761 376.123 334.761C373.866 334.761 371.866 335.32 370.028 336.427C368.179 337.535 366.728 339.007 365.653 340.835C364.578 342.662 364.04 344.683 364.04 346.908C364.04 349.133 364.578 351.219 365.653 353.068C366.728 354.917 368.179 356.379 370.028 357.475C371.877 358.572 373.909 359.109 376.123 359.109Z" fill="#1F1F27"/>
<path d="M415.875 335.223H397.3V333.364H415.875V335.223ZM404.868 360.571H402.89V329.289C402.89 327.591 403.223 326.086 403.911 324.742C404.588 323.409 405.545 322.367 406.792 321.636C408.039 320.905 409.522 320.539 411.253 320.539C412.113 320.539 412.951 320.636 413.736 320.819C414.521 321.002 415.262 321.292 415.94 321.668V323.753C415.338 323.345 414.639 323.012 413.854 322.764C413.059 322.517 412.231 322.399 411.371 322.399C409.339 322.399 407.748 323.012 406.598 324.237C405.448 325.463 404.878 327.161 404.878 329.343V360.571H404.868Z" fill="#1F1F27"/>
<path d="M432.355 361.141C429.754 361.141 427.41 360.507 425.293 359.249C423.186 357.991 421.541 356.282 420.348 354.143C419.165 351.993 418.574 349.585 418.574 346.919C418.574 344.253 419.133 341.963 420.24 339.835C421.348 337.707 422.906 336.008 424.895 334.729C426.894 333.45 429.184 332.805 431.786 332.805C434.387 332.805 436.537 333.375 438.472 334.525C440.407 335.675 441.912 337.223 442.987 339.179C444.062 341.136 444.599 343.436 444.599 346.07V347.543H419.875L420.606 345.511C420.38 347.994 420.735 350.273 421.681 352.348C422.627 354.422 424.024 356.078 425.884 357.314C427.744 358.561 429.883 359.174 432.291 359.174C434.322 359.174 436.193 358.744 437.913 357.873C439.622 357.013 441.052 355.637 442.18 353.756L443.761 354.712C442.481 356.862 440.847 358.464 438.88 359.539C436.902 360.614 434.731 361.152 432.355 361.152V361.141ZM420.67 345.833H442.686C442.643 343.576 442.159 341.63 441.213 339.986C440.267 338.352 438.988 337.062 437.343 336.116C435.709 335.17 433.828 334.707 431.721 334.707C429.614 334.707 427.744 335.202 426.131 336.202C424.508 337.201 423.229 338.534 422.294 340.211C421.358 341.888 420.81 343.759 420.66 345.833H420.67ZM432.753 328.161H430.549L436.816 320.647H439.02L432.753 328.161Z" fill="#1F1F27"/>
<path d="M284.208 386.532L283.218 391.842C282.942 393.222 282.39 394.278 281.562 395.01C280.746 395.73 279.738 396.09 278.538 396.09C277.698 396.09 277.008 395.922 276.468 395.586C275.94 395.25 275.58 394.794 275.388 394.218C274.956 394.842 274.416 395.31 273.768 395.622C273.12 395.934 272.424 396.09 271.68 396.09C270.576 396.09 269.73 395.808 269.142 395.244C268.554 394.68 268.26 393.912 268.26 392.94C268.26 392.616 268.296 392.274 268.368 391.914L269.412 386.532H270.618L269.592 391.896C269.532 392.16 269.502 392.466 269.502 392.814C269.502 393.498 269.694 394.026 270.078 394.398C270.474 394.758 271.056 394.938 271.824 394.938C272.688 394.938 273.408 394.686 273.984 394.182C274.572 393.666 274.968 392.916 275.172 391.932L276.198 386.532H277.404L276.396 391.896C276.324 392.232 276.288 392.55 276.288 392.85C276.288 393.534 276.48 394.056 276.864 394.416C277.26 394.764 277.848 394.938 278.628 394.938C279.528 394.938 280.266 394.668 280.842 394.128C281.418 393.576 281.808 392.766 282.012 391.698L283.002 386.532H284.208ZM287.542 386.532H288.82L286.948 396H285.67L287.542 386.532ZM288.73 384.462C288.478 384.462 288.268 384.378 288.1 384.21C287.944 384.042 287.866 383.844 287.866 383.616C287.866 383.34 287.956 383.112 288.136 382.932C288.328 382.74 288.568 382.644 288.856 382.644C289.108 382.644 289.318 382.728 289.486 382.896C289.654 383.052 289.738 383.238 289.738 383.454C289.738 383.742 289.642 383.982 289.45 384.174C289.258 384.366 289.018 384.462 288.73 384.462ZM292.25 393.138C292.202 393.426 292.178 393.624 292.178 393.732C292.178 394.572 292.634 394.992 293.546 394.992C294.086 394.992 294.572 394.83 295.004 394.506L295.292 395.478C294.752 395.886 294.056 396.09 293.204 396.09C292.496 396.09 291.932 395.898 291.512 395.514C291.104 395.13 290.9 394.602 290.9 393.93C290.9 393.666 290.924 393.42 290.972 393.192L292.7 384.462H293.978L293.564 386.532H296.444L296.228 387.612H293.348L292.25 393.138ZM303.981 386.46C305.049 386.46 305.877 386.736 306.465 387.288C307.065 387.828 307.365 388.578 307.365 389.538C307.365 389.874 307.329 390.234 307.257 390.618L306.177 396H304.899L305.979 390.6C306.039 390.264 306.069 389.976 306.069 389.736C306.069 389.052 305.859 388.53 305.439 388.17C305.031 387.798 304.425 387.612 303.621 387.612C302.601 387.612 301.761 387.894 301.101 388.458C300.441 389.01 299.997 389.832 299.769 390.924L298.761 396H297.483L300.147 382.644H301.425L300.363 387.954C301.239 386.958 302.445 386.46 303.981 386.46ZM316.985 396.09C316.301 396.09 315.767 395.91 315.383 395.55C315.011 395.178 314.825 394.668 314.825 394.02C314.825 393.768 314.849 393.528 314.897 393.3L317.039 382.644H318.317L316.193 393.264C316.145 393.528 316.121 393.714 316.121 393.822C316.121 394.206 316.229 394.5 316.445 394.704C316.661 394.896 316.973 394.992 317.381 394.992C317.717 394.992 318.017 394.938 318.281 394.83L318.173 395.892C317.813 396.024 317.417 396.09 316.985 396.09ZM330.208 394.992C330.544 394.992 330.844 394.938 331.108 394.83L331 395.892C330.64 396.024 330.244 396.09 329.812 396.09C329.176 396.09 328.672 395.928 328.3 395.604C327.94 395.28 327.742 394.842 327.706 394.29C327.262 394.902 326.716 395.358 326.068 395.658C325.42 395.946 324.694 396.09 323.89 396.09C322.834 396.09 322.006 395.82 321.406 395.28C320.818 394.728 320.524 393.966 320.524 392.994C320.524 392.658 320.56 392.304 320.632 391.932L321.712 386.532H322.99L321.91 391.932C321.85 392.268 321.82 392.55 321.82 392.778C321.82 393.474 322.018 394.008 322.414 394.38C322.822 394.752 323.428 394.938 324.232 394.938C325.24 394.938 326.074 394.656 326.734 394.092C327.394 393.528 327.838 392.706 328.066 391.626L329.074 386.532H330.352L329.002 393.264C328.966 393.456 328.948 393.636 328.948 393.804C328.948 394.188 329.056 394.482 329.272 394.686C329.488 394.89 329.8 394.992 330.208 394.992ZM342.415 386.532L336.331 396H335.017L332.677 386.532H333.955L335.917 394.614L341.083 386.532H342.415ZM347.413 390.564H352.129L351.913 391.68H347.197L347.413 390.564ZM363.965 383.634C363.413 383.634 362.975 383.784 362.651 384.084C362.327 384.384 362.099 384.852 361.967 385.488L361.751 386.532H364.649L364.433 387.612H361.553L359.879 396H358.601L360.743 385.344C360.911 384.444 361.271 383.754 361.823 383.274C362.375 382.794 363.095 382.554 363.983 382.554C364.367 382.554 364.727 382.608 365.063 382.716C365.399 382.824 365.675 382.974 365.891 383.166L365.315 384.102C364.979 383.79 364.529 383.634 363.965 383.634ZM368.722 388.26C369.142 387.648 369.67 387.198 370.306 386.91C370.942 386.61 371.71 386.46 372.61 386.46L372.376 387.702L372.016 387.684C370.996 387.684 370.156 387.978 369.496 388.566C368.848 389.154 368.41 390.03 368.182 391.194L367.228 396H365.95L367.822 386.532H369.046L368.722 388.26ZM377.158 396.09C376.294 396.09 375.538 395.928 374.89 395.604C374.242 395.268 373.738 394.8 373.378 394.2C373.03 393.588 372.856 392.88 372.856 392.076C372.856 391.008 373.09 390.048 373.558 389.196C374.026 388.344 374.674 387.678 375.502 387.198C376.342 386.706 377.284 386.46 378.328 386.46C379.648 386.46 380.692 386.82 381.46 387.54C382.24 388.26 382.63 389.232 382.63 390.456C382.63 391.524 382.396 392.49 381.928 393.354C381.46 394.206 380.806 394.878 379.966 395.37C379.138 395.85 378.202 396.09 377.158 396.09ZM377.248 394.956C378.028 394.956 378.73 394.77 379.354 394.398C379.978 394.014 380.464 393.486 380.812 392.814C381.172 392.13 381.352 391.368 381.352 390.528C381.352 389.604 381.076 388.884 380.524 388.368C379.984 387.84 379.222 387.576 378.238 387.576C377.458 387.576 376.756 387.768 376.132 388.152C375.508 388.536 375.016 389.07 374.656 389.754C374.308 390.426 374.134 391.182 374.134 392.022C374.134 392.946 374.404 393.666 374.944 394.182C375.496 394.698 376.264 394.956 377.248 394.956ZM397.695 386.46C398.763 386.46 399.585 386.73 400.161 387.27C400.749 387.798 401.043 388.542 401.043 389.502C401.043 389.778 401.001 390.15 400.917 390.618L399.837 396H398.559L399.639 390.6C399.699 390.324 399.729 390.03 399.729 389.718C399.729 389.046 399.531 388.53 399.135 388.17C398.739 387.798 398.157 387.612 397.389 387.612C396.429 387.612 395.631 387.882 394.995 388.422C394.359 388.95 393.933 389.736 393.717 390.78L392.673 396H391.395L392.475 390.6C392.535 390.264 392.565 389.976 392.565 389.736C392.565 389.052 392.367 388.53 391.971 388.17C391.587 387.798 391.005 387.612 390.225 387.612C389.253 387.612 388.449 387.894 387.813 388.458C387.177 389.01 386.745 389.832 386.517 390.924L385.509 396H384.231L386.103 386.532H387.327L387.021 388.044C387.885 386.988 389.079 386.46 390.603 386.46C391.395 386.46 392.055 386.622 392.583 386.946C393.123 387.27 393.495 387.738 393.699 388.35C394.167 387.726 394.737 387.258 395.409 386.946C396.093 386.622 396.855 386.46 397.695 386.46ZM414.53 386.46C415.598 386.46 416.426 386.736 417.014 387.288C417.614 387.828 417.914 388.578 417.914 389.538C417.914 389.874 417.878 390.234 417.806 390.618L416.726 396H415.448L416.528 390.6C416.588 390.264 416.618 389.976 416.618 389.736C416.618 389.052 416.408 388.53 415.988 388.17C415.58 387.798 414.974 387.612 414.17 387.612C413.15 387.612 412.31 387.894 411.65 388.458C410.99 389.01 410.546 389.832 410.318 390.924L409.31 396H408.032L410.696 382.644H411.974L410.912 387.954C411.788 386.958 412.994 386.46 414.53 386.46ZM430.635 386.532L428.943 394.956C428.619 396.588 428.043 397.764 427.215 398.484C426.399 399.216 425.259 399.582 423.795 399.582C422.979 399.582 422.229 399.456 421.545 399.204C420.861 398.952 420.297 398.592 419.853 398.124L420.573 397.152C420.957 397.572 421.437 397.89 422.013 398.106C422.589 398.334 423.213 398.448 423.885 398.448C424.989 398.448 425.835 398.172 426.423 397.62C427.011 397.08 427.425 396.192 427.665 394.956L427.827 394.146C426.951 395.142 425.757 395.64 424.245 395.64C423.189 395.64 422.367 395.37 421.779 394.83C421.191 394.278 420.897 393.516 420.897 392.544C420.897 392.208 420.933 391.854 421.005 391.482L421.995 386.532H423.273L422.283 391.482C422.223 391.818 422.193 392.1 422.193 392.328C422.193 393.024 422.391 393.558 422.787 393.93C423.195 394.302 423.801 394.488 424.605 394.488C425.613 394.488 426.447 394.206 427.107 393.642C427.767 393.078 428.205 392.256 428.421 391.176L429.357 386.532H430.635ZM441.505 393.264C441.457 393.528 441.433 393.714 441.433 393.822C441.433 394.206 441.541 394.5 441.757 394.704C441.973 394.896 442.285 394.992 442.693 394.992C443.029 394.992 443.329 394.938 443.593 394.83L443.485 395.892C443.125 396.024 442.729 396.09 442.297 396.09C441.685 396.09 441.187 395.94 440.803 395.64C440.431 395.328 440.215 394.902 440.155 394.362C439.699 394.914 439.147 395.34 438.499 395.64C437.863 395.94 437.149 396.09 436.357 396.09C435.553 396.09 434.839 395.928 434.215 395.604C433.591 395.28 433.105 394.818 432.757 394.218C432.409 393.606 432.235 392.892 432.235 392.076C432.235 391.008 432.463 390.048 432.919 389.196C433.387 388.344 434.029 387.678 434.845 387.198C435.661 386.706 436.573 386.46 437.581 386.46C438.481 386.46 439.231 386.634 439.831 386.982C440.443 387.33 440.887 387.834 441.163 388.494L442.351 382.644H443.629L441.505 393.264ZM436.627 394.956C437.407 394.956 438.109 394.77 438.733 394.398C439.357 394.014 439.843 393.486 440.191 392.814C440.551 392.13 440.731 391.368 440.731 390.528C440.731 389.604 440.455 388.884 439.903 388.368C439.363 387.84 438.601 387.576 437.617 387.576C436.837 387.576 436.135 387.768 435.511 388.152C434.887 388.536 434.395 389.07 434.035 389.754C433.687 390.426 433.513 391.182 433.513 392.022C433.513 392.946 433.783 393.666 434.323 394.182C434.875 394.698 435.643 394.956 436.627 394.956Z" fill="#1F1F27"/>
</svg>
