<svg width="500" height="500" viewBox="0 0 500 500" fill="none" xmlns="http://www.w3.org/2000/svg">
<rect width="500" height="500" fill="#FFE8D3"/>
<path d="M322.222 43.8421L324.701 43.8421C329.95 43.8421 334.204 48.0983 334.207 53.3478C334.207 53.3479 334.207 53.348 334.207 53.3481L334.207 96.7871C334.207 102.036 329.95 106.293 324.701 106.293L322.222 106.293C316.973 106.293 312.716 102.036 312.716 96.7871L312.716 53.3478C312.716 48.0987 316.973 43.8421 322.222 43.8421Z" fill="#FFAE63" stroke="black" stroke-width="1.68425"/>
<path d="M277.623 44.0576L277.623 44.0576C281.98 44.0654 285.505 47.602 285.498 51.9584C285.498 51.9587 285.498 51.959 285.498 51.9594L285.362 97.6604L285.362 97.6614C285.354 102.018 281.817 105.544 277.46 105.536L271.64 105.525C267.283 105.517 263.757 101.98 263.765 97.6238C263.765 97.6236 263.765 97.6235 263.765 97.6233L263.901 51.9223L263.901 51.9213C263.909 47.5642 267.446 44.0389 271.803 44.0467C271.803 44.0467 271.803 44.0467 271.803 44.0467L277.623 44.0576Z" fill="#FFAE63" stroke="black" stroke-width="1.68425"/>
<path d="M286.005 143.326L286.005 143.327L286.005 354.261C286.005 359.361 281.872 363.496 276.77 363.496L272.998 363.496C267.898 363.496 263.763 359.363 263.763 354.261L263.763 143.327C263.763 138.227 267.896 134.092 272.998 134.092L276.77 134.092C281.872 134.092 286.007 138.225 286.005 143.326Z" fill="#FFAE63" stroke="black" stroke-width="1.68425"/>
<path d="M322.86 134.092L324.369 134.092C330.153 134.092 334.845 138.782 334.845 144.566L334.845 310.125C334.845 315.911 330.155 320.601 324.369 320.601L322.86 320.601C317.074 320.601 312.384 315.911 312.384 310.125L312.384 144.568C312.384 138.782 317.074 134.092 322.86 134.092Z" fill="#FFAE63" stroke="black" stroke-width="1.68425"/>
<path d="M175.67 250.985L178.258 250.985C183.686 250.985 188.086 255.387 188.086 260.813L188.086 319.407C188.086 324.836 183.687 329.236 178.258 329.236L175.67 329.236C170.242 329.236 165.842 324.836 165.842 319.407L165.842 260.813C165.842 255.385 170.242 250.985 175.67 250.985Z" fill="#FFAE63" stroke="black" stroke-width="1.68425"/>
<path d="M223.686 267.262L228.214 267.262C232.837 267.262 236.587 271.009 236.587 275.635L236.587 353.456C236.587 358.08 232.839 361.829 228.214 361.829L223.686 361.829C219.063 361.829 215.313 358.081 215.313 353.456L215.313 275.635C215.313 271.011 219.061 267.262 223.686 267.262Z" fill="#FFAE63" stroke="black" stroke-width="1.68425"/>
<path d="M165.288 448.384V441.664C170.184 441.664 171.96 439.648 171.96 436.096L171.912 415.696H178.968V435.568C178.968 443.68 174.552 448.384 165.288 448.384ZM196.299 448.624C189.387 448.624 184.539 442.96 184.539 436.048C184.539 429.232 190.107 423.52 197.403 423.52C204.843 423.52 210.315 428.896 210.315 436.048V448H203.835V445.216C202.155 447.328 199.563 448.624 196.299 448.624ZM197.403 442.24C200.907 442.24 203.499 439.456 203.499 436.096C203.499 432.736 200.907 429.952 197.403 429.952C193.899 429.952 191.355 432.736 191.355 436.096C191.355 439.456 193.899 442.24 197.403 442.24ZM245.973 423.376C253.701 423.376 257.637 428.944 257.637 435.568V448H250.821V436.72C250.821 433.072 249.237 430 245.493 430C241.797 430 240.213 433.024 240.213 436.624V448H233.397V436.672C233.397 433.024 231.813 430 228.117 430C224.325 430 222.837 433.072 222.837 436.672V448H216.021V435.568C216.021 428.944 219.909 423.376 227.589 423.376C232.149 423.376 235.461 425.392 236.853 428.656C238.341 425.392 241.701 423.376 245.973 423.376ZM293.316 423.376C301.044 423.376 304.98 428.944 304.98 435.568V448H298.164V436.72C298.164 433.072 296.58 430 292.836 430C289.14 430 287.556 433.024 287.556 436.624V448H280.74V436.672C280.74 433.024 279.156 430 275.46 430C271.668 430 270.18 433.072 270.18 436.672V448H263.364V435.568C263.364 428.944 267.252 423.376 274.932 423.376C279.492 423.376 282.804 425.392 284.196 428.656C285.684 425.392 289.044 423.376 293.316 423.376ZM322.468 448.624C315.076 448.624 309.508 443.488 309.508 435.904C309.508 429.04 314.5 423.376 321.844 423.376C329.38 423.376 333.748 428.944 333.748 435.424V437.44H316.084C316.564 440.608 319.012 442.72 322.42 442.72C325.012 442.72 327.172 441.472 328.276 439.264L333.508 441.904C331.444 446.176 327.508 448.624 322.468 448.624ZM316.372 433.648H326.98C326.692 431.2 324.676 429.328 321.796 429.328C318.82 429.328 316.852 431.248 316.372 433.648Z" fill="black"/>
</svg>
