<svg width="500" height="500" viewBox="0 0 500 500" fill="none" xmlns="http://www.w3.org/2000/svg">
<rect width="500" height="500" fill="#E9CFD2"/>
<path fill-rule="evenodd" clip-rule="evenodd" d="M215.754 294.508C241.912 294.508 264.845 280.703 277.667 259.982C271.274 262.751 264.215 264.287 256.794 264.287C240.325 264.287 225.636 256.721 216.062 244.9C213.711 250.586 208.111 254.586 201.576 254.586C192.921 254.586 185.906 247.57 185.906 238.916C185.906 230.261 192.921 223.246 201.576 223.246C203.048 223.246 204.474 223.449 205.825 223.829C204.997 220.163 204.56 216.351 204.56 212.438C204.56 211.538 204.586 210.614 204.636 209.714L282.46 192.666C271.236 166.964 245.593 149 215.754 149C175.573 149 143 181.573 143 221.754C143 261.935 175.573 294.508 215.754 294.508ZM193.368 238.916C193.368 234.383 197.043 230.708 201.576 230.708C206.109 230.708 209.784 234.383 209.784 238.916C209.784 243.449 206.109 247.124 201.576 247.124C197.043 247.124 193.368 243.449 193.368 238.916ZM242.209 170.409L240.224 167.706L242.142 172.314C243.286 174.698 243.761 177.347 243.518 179.979L243.316 182.17C242.866 187.047 245.246 191.745 249.427 194.271C249.456 194.289 249.486 194.252 249.462 194.228C246.53 191.169 245.069 186.988 245.458 182.768L245.603 181.192C245.963 177.288 244.74 173.403 242.209 170.409ZM248.301 176.624L249.465 178.208C250.949 179.963 251.666 182.241 251.454 184.529L251.369 185.453C251.141 187.927 251.997 190.378 253.717 192.171C253.73 192.185 253.713 192.207 253.696 192.196C251.245 190.716 249.85 187.962 250.114 185.103L250.232 183.818C250.375 182.275 250.096 180.722 249.426 179.325L248.301 176.624Z" fill="#1F1F27"/>
<mask id="mask0_70_53263" style="mask-type:luminance" maskUnits="userSpaceOnUse" x="295" y="205" width="62" height="45">
<path d="M295.896 205.97H356.488V249.602H295.896V205.97Z" fill="white"/>
</mask>
<g mask="url(#mask0_70_53263)">
<path d="M321.029 236.031C322.499 232.832 321.682 229.837 320.138 226.976C319.67 226.114 318.679 225.98 317.704 225.828C308.8 224.406 307.949 222.239 306.038 218.83C303.981 215.159 303.919 213.422 301.654 212.892C300.566 212.642 299.575 211.849 298.329 212.409C298.109 212.508 297.247 212.362 297.202 211.599C297.157 210.894 297.27 210.235 297.985 209.944C299.017 209.53 300.065 209.145 301.192 209.163C304.742 209.215 305.261 206.692 306.534 208.813C309.651 214.011 306.433 210.934 311.116 217.816C312.209 219.413 313.934 219.092 315.455 218.941C317.94 218.696 319.997 217.35 321.902 215.771C322.483 215.293 323.108 214.769 322.595 213.795C322.364 213.37 322.573 212.968 323.029 212.776C324.444 212.181 325.126 210.917 325.667 209.588C326.596 207.316 328.084 211.966 330.845 208.301C332.305 206.36 334.683 205.97 336.605 207.438C338.476 208.866 340.274 210.398 342.511 211.22C343.305 211.517 343.677 212.175 343.61 213.079C343.379 216.173 346.005 215.194 347.053 217.56C347.656 218.912 349.307 219.663 349.363 221.237C349.431 223.183 350.243 224.972 350.259 226.883C350.282 228.66 350.975 230.105 351.967 231.463C351.99 231.9 352.125 232.302 352.378 232.64C354.114 234.959 354.244 237.744 354.497 240.489C354.678 242.523 356.092 243.74 354.424 244.702C354.204 244.83 354.159 245.11 354.289 245.343C354.751 246.182 354.08 246.345 353.607 246.677C352.948 247.132 352.232 246.992 351.601 246.811C351.167 246.689 351.296 246.071 351.494 245.704C353.489 241.94 352.508 238.385 350.682 234.965C350.102 233.875 349.718 232.657 348.89 231.708C348.563 230.047 346.963 229.453 346.185 227.961C345.436 229.429 345.751 230.746 345.796 232.04C345.165 235.857 348.231 235.787 345.796 238.747C344.968 239.755 344.252 240.856 343.418 241.858C341.615 244.038 342.95 245.751 340.6 246.403C339.541 246.695 338.188 248.099 337.428 246.468C337.146 245.867 337.687 245.64 338.126 245.459C339.62 244.848 339.795 243.735 342.263 240.454C343.801 238.409 343.813 234.528 342.404 232.436C342.364 232.29 342.325 232.145 342.285 231.999L342.359 231.888L342.274 231.789C341.97 230.338 341.181 229.033 341.108 227.495C341.085 227.034 340.916 226.463 340.071 226.836C336.25 228.555 332.091 229.08 329.589 228.783C329.014 228.718 328.8 229.033 328.603 229.552C327.898 231.376 328.349 232.914 329.566 234.301C330.721 235.897 330.637 237.931 331.33 239.691C331.967 241.287 332.356 242.977 333.252 244.492C335.078 247.598 329.701 248.723 330.755 246.695C331.567 245.133 331.071 243.7 330.62 242.208C329.938 239.959 329.042 237.826 327.712 235.903C327.453 235.524 327.256 235.041 326.709 234.988C326.36 233.042 324.996 231.696 323.998 230.129C323.998 231.859 323.998 233.584 323.998 235.315C323.779 236.055 323.486 236.76 323.841 237.581C324.083 238.147 323.97 238.758 323.514 239.254C322.55 240.285 322.268 246.042 321.964 248.699C321.801 250.109 320.662 249.259 320.403 249.2C317.354 248.53 320.442 248.07 320.719 245.832C321.795 236.987 321.417 238.56 321.029 236.031Z" fill="#1F1F27"/>
</g>
<mask id="mask1_70_53263" style="mask-type:luminance" maskUnits="userSpaceOnUse" x="281" y="224" width="14" height="26">
<path d="M281.868 224.615H294.452V249.602H281.868V224.615Z" fill="white"/>
</mask>
<g mask="url(#mask1_70_53263)">
<path d="M288.699 232.476C288.394 231.224 288.045 230.105 287.059 229.219C286.546 228.765 286.174 228.112 287.031 227.448C287.735 226.9 287.504 226.265 286.817 225.904C284.681 224.791 281.869 226.096 282.286 226.813C282.849 227.78 282.325 229.336 283.695 229.819C284.326 230.041 284.348 230.443 284.202 230.915C283.441 233.415 283.593 236.013 283.362 238.572C284.258 244.084 284.297 245.121 285.132 246.147C285.723 246.869 285.988 247.912 284.889 248.652C284.658 248.81 284.433 249.037 284.472 249.392C287.183 249.713 287.369 249.585 287.38 246.828C287.386 245.914 287.611 245.447 288.552 245.523C289.905 245.634 290.88 245.121 291.533 246.333C292.024 247.254 291.359 247.65 291.049 248.209C291.922 249.153 292.711 248.507 293.393 248.052C294.131 247.563 293.596 246.869 293.387 246.281C289.798 235.862 289.274 234.836 288.699 232.476Z" fill="#1F1F27"/>
</g>
<path d="M307.77 221.201C306.907 228.108 299.999 241.145 289.639 238.037" stroke="#1F1F27" stroke-width="0.518037" stroke-linejoin="bevel"/>
<path d="M83.7233 360.571H63.2882C60.6868 360.571 58.8271 359.937 57.6984 358.647C56.5697 357.368 56 355.658 56 353.508V329.677C56 327.494 56.5697 325.764 57.6984 324.484C58.8271 323.205 60.6868 322.56 63.2882 322.56H83.39V329.956H64.245V353.164H83.7233V360.56V360.571ZM82.1968 345.274H62.3208L61.2458 337.879H82.1968V345.274Z" fill="#1F1F27"/>
<path d="M125.336 331.611C128.389 331.611 130.915 332.267 132.925 333.589C134.935 334.911 136.462 336.642 137.494 338.781C138.526 340.92 139.042 343.318 139.042 345.951V360.571H131.022V347.306C131.022 345.833 130.807 344.511 130.377 343.328C129.947 342.146 129.27 341.189 128.346 340.48C127.421 339.76 126.228 339.405 124.766 339.405C123.304 339.405 122.111 339.749 121.208 340.448C120.305 341.146 119.639 342.081 119.198 343.275C118.768 344.457 118.553 345.769 118.553 347.198V360.582H110.534V347.252C110.534 345.779 110.329 344.457 109.91 343.275C109.491 342.092 108.814 341.146 107.879 340.448C106.933 339.749 105.75 339.405 104.32 339.405C102.815 339.405 101.611 339.76 100.709 340.48C99.8055 341.2 99.1498 342.146 98.7306 343.328C98.3113 344.511 98.1071 345.822 98.1071 347.252V360.582H90.0879V345.962C90.0879 343.361 90.5931 340.985 91.6143 338.814C92.6355 336.642 94.1405 334.911 96.1614 333.589C98.1716 332.267 100.687 331.611 103.697 331.611C106.105 331.611 108.19 332.052 109.932 332.934C111.684 333.815 113.038 335.04 113.995 336.599C114.952 338.158 115.457 339.975 115.489 342.049H113.683C113.716 339.975 114.253 338.158 115.263 336.599C116.285 335.04 117.65 333.815 119.381 332.934C121.111 332.052 123.089 331.611 125.314 331.611H125.336Z" fill="#1F1F27"/>
<path d="M150.918 328.44C150.015 328.44 149.177 328.225 148.403 327.795C147.629 327.365 147.027 326.763 146.597 325.989C146.167 325.215 145.952 324.377 145.952 323.474C145.952 322.571 146.167 321.743 146.597 320.991C147.027 320.238 147.629 319.636 148.403 319.185C149.177 318.733 150.015 318.508 150.918 318.508C151.821 318.508 152.649 318.733 153.402 319.185C154.154 319.636 154.745 320.238 155.175 320.991C155.605 321.743 155.82 322.571 155.82 323.474C155.82 324.377 155.605 325.215 155.175 325.989C154.745 326.763 154.154 327.365 153.402 327.795C152.649 328.225 151.821 328.44 150.918 328.44ZM146.909 332.622H154.928V360.571H146.909V332.622Z" fill="#1F1F27"/>
<path d="M170.785 360.571H162.766V344.533C162.766 342.125 163.217 339.964 164.12 338.072C165.023 336.169 166.399 334.665 168.237 333.557C170.086 332.45 172.376 331.891 175.128 331.891C176.074 331.891 176.987 331.977 177.89 332.149C178.793 332.321 179.6 332.558 180.32 332.859V340.652C179.643 340.244 178.912 339.932 178.116 339.749C177.321 339.566 176.568 339.47 175.859 339.47C174.278 339.47 173.031 339.953 172.129 340.91C171.226 341.867 170.774 343.178 170.774 344.834V360.582L170.785 360.571Z" fill="#1F1F27"/>
<path d="M196.648 361.302C193.939 361.302 191.542 360.635 189.478 359.302C187.404 357.969 185.78 356.174 184.598 353.938C183.415 351.702 182.813 349.219 182.813 346.51C182.813 343.802 183.48 341.383 184.824 339.147C186.157 336.911 187.963 335.116 190.241 333.783C192.52 332.45 195.09 331.783 197.949 331.783C200.808 331.783 203.442 332.428 205.742 333.729C208.043 335.03 209.849 336.782 211.16 338.975C212.482 341.179 213.138 343.694 213.138 346.51V360.571H205.517V350.466L207.946 349.789C207.946 351.971 207.473 353.938 206.538 355.691C205.592 357.443 204.302 358.819 202.646 359.808C200.991 360.807 198.992 361.302 196.659 361.302H196.648ZM197.949 353.799C199.336 353.799 200.572 353.465 201.647 352.81C202.722 352.154 203.571 351.272 204.184 350.187C204.796 349.101 205.119 347.886 205.119 346.575C205.119 345.263 204.807 344.06 204.184 342.963C203.56 341.877 202.711 340.996 201.647 340.34C200.572 339.684 199.336 339.351 197.949 339.351C196.562 339.351 195.38 339.684 194.305 340.34C193.23 340.996 192.381 341.877 191.768 342.963C191.144 344.06 190.833 345.263 190.833 346.575C190.833 347.886 191.144 349.101 191.768 350.187C192.391 351.283 193.241 352.154 194.305 352.81C195.369 353.465 196.594 353.799 197.949 353.799Z" fill="#1F1F27"/>
<path d="M240.067 339.394H217.03V332.622H240.067V339.394ZM234.251 361.366C231.574 361.366 229.349 360.872 227.565 359.872C225.78 358.872 224.426 357.486 223.523 355.691C222.62 353.906 222.169 351.842 222.169 349.509V325.516H230.188V349.284C230.188 350.832 230.618 352.036 231.489 352.896C232.348 353.766 233.52 354.196 234.993 354.196C235.821 354.196 236.702 354.089 237.648 353.863C238.594 353.637 239.4 353.293 240.077 352.842V360.012C239.357 360.431 238.465 360.754 237.39 361.001C236.315 361.248 235.272 361.366 234.251 361.366Z" fill="#1F1F27"/>
<path d="M259.372 361.302C256.469 361.302 253.868 360.668 251.557 359.41C249.246 358.152 247.429 356.4 246.107 354.164C244.785 351.928 244.129 349.316 244.129 346.349C244.129 343.672 244.742 341.221 245.967 338.986C247.193 336.75 248.891 334.954 251.073 333.622C253.255 332.289 255.781 331.611 258.641 331.611C261.5 331.611 264.134 332.256 266.209 333.557C268.283 334.858 269.874 336.578 270.981 338.728C272.089 340.877 272.648 343.221 272.648 345.79V348.166H250.514L251.761 346.188C251.686 347.768 251.955 349.176 252.578 350.423C253.202 351.67 254.083 352.638 255.233 353.336C256.383 354.035 257.749 354.379 259.329 354.379C260.909 354.379 262.199 354.024 263.424 353.304C264.65 352.584 265.574 351.595 266.219 350.316L272.379 353.422C271.175 355.948 269.455 357.894 267.208 359.27C264.972 360.646 262.36 361.334 259.383 361.334L259.372 361.302ZM252.202 343.694H264.682C264.575 342.716 264.241 341.845 263.693 341.071C263.145 340.297 262.436 339.695 261.576 339.265C260.705 338.835 259.716 338.62 258.587 338.62C257.458 338.62 256.394 338.846 255.513 339.297C254.631 339.749 253.911 340.362 253.363 341.135C252.815 341.909 252.428 342.759 252.202 343.705V343.694Z" fill="#1F1F27"/>
<path d="M290.932 361.302C288.224 361.302 285.826 360.635 283.762 359.302C281.688 357.969 280.065 356.174 278.882 353.938C277.7 351.702 277.098 349.219 277.098 346.51C277.098 343.802 277.764 341.383 279.108 339.147C280.441 336.911 282.247 335.116 284.526 333.783C286.805 332.45 289.374 331.783 292.233 331.783C295.092 331.783 297.726 332.428 300.027 333.729C302.327 335.03 304.133 336.782 305.444 338.975C306.767 341.179 307.422 343.694 307.422 346.51V360.571H299.801V350.466L302.23 349.789C302.23 351.971 301.757 353.938 300.822 355.691C299.876 357.443 298.586 358.819 296.931 359.808C295.275 360.807 293.276 361.302 290.943 361.302H290.932ZM292.233 353.799C293.62 353.799 294.856 353.465 295.931 352.81C297.006 352.154 297.855 351.272 298.468 350.187C299.081 349.101 299.403 347.886 299.403 346.575C299.403 345.263 299.091 344.06 298.468 342.963C297.844 341.877 296.995 340.996 295.931 340.34C294.856 339.684 293.62 339.351 292.233 339.351C290.846 339.351 289.664 339.684 288.589 340.34C287.514 340.996 286.665 341.877 286.052 342.963C285.429 344.06 285.117 345.263 285.117 346.575C285.117 347.886 285.429 349.101 286.052 350.187C286.676 351.283 287.525 352.154 288.589 352.81C289.653 353.465 290.879 353.799 292.233 353.799Z" fill="#1F1F27"/>
<path d="M342.639 361.141C340.08 361.141 337.683 360.646 335.437 359.647C333.201 358.647 331.234 357.26 329.535 355.465C327.837 353.681 326.493 351.617 325.493 349.284C324.493 346.951 323.999 344.425 323.999 341.716C323.999 339.007 324.493 336.492 325.493 334.181C326.493 331.87 327.837 329.827 329.535 328.053C331.234 326.28 333.19 324.915 335.437 323.936C337.673 322.958 340.08 322.464 342.639 322.464C344.671 322.464 346.605 322.786 348.454 323.42C350.303 324.055 351.969 324.968 353.474 326.161C354.979 327.344 356.226 328.774 357.205 330.429L355.571 331.504C354.173 329.247 352.303 327.505 349.949 326.28C347.594 325.054 345.143 324.442 342.585 324.442C340.36 324.442 338.253 324.872 336.264 325.742C334.265 326.613 332.523 327.838 331.019 329.44C329.514 331.042 328.331 332.891 327.46 334.998C326.59 337.105 326.16 339.341 326.16 341.716C326.16 344.092 326.59 346.382 327.46 348.488C328.32 350.595 329.514 352.455 331.019 354.046C332.523 355.648 334.276 356.884 336.264 357.776C338.264 358.658 340.371 359.098 342.585 359.098C345.143 359.098 347.605 358.486 349.949 357.26C352.303 356.035 354.173 354.293 355.571 352.036L357.205 353.111C356.226 354.766 354.979 356.185 353.474 357.378C351.969 358.561 350.293 359.485 348.454 360.141C346.616 360.797 344.671 361.13 342.639 361.13V361.141Z" fill="#1F1F27"/>
<path d="M375.951 361.022C373.35 361.022 370.995 360.388 368.867 359.13C366.739 357.873 365.062 356.153 363.847 353.992C362.622 351.832 362.009 349.445 362.009 346.854C362.009 344.264 362.632 341.996 363.868 339.856C365.115 337.707 366.792 335.997 368.921 334.718C371.049 333.439 373.446 332.794 376.123 332.794C378.8 332.794 381.143 333.417 383.261 334.654C385.389 335.901 387.077 337.599 388.345 339.76C389.603 341.92 390.237 344.285 390.237 346.844V360.56H388.313V349.886L389.496 347.349C389.496 349.832 388.904 352.122 387.722 354.207C386.539 356.293 384.927 357.948 382.895 359.173C380.864 360.399 378.552 361.012 375.951 361.012V361.022ZM376.123 359.109C378.38 359.109 380.423 358.561 382.25 357.475C384.078 356.379 385.529 354.917 386.625 353.068C387.711 351.219 388.259 349.176 388.259 346.908C388.259 344.64 387.711 342.662 386.625 340.835C385.529 339.007 384.078 337.545 382.25 336.427C380.423 335.32 378.38 334.761 376.123 334.761C373.866 334.761 371.866 335.32 370.028 336.427C368.179 337.535 366.728 339.007 365.653 340.835C364.578 342.662 364.04 344.683 364.04 346.908C364.04 349.133 364.578 351.219 365.653 353.068C366.728 354.917 368.179 356.379 370.028 357.475C371.877 358.572 373.909 359.109 376.123 359.109Z" fill="#1F1F27"/>
<path d="M415.875 335.223H397.3V333.364H415.875V335.223ZM404.868 360.571H402.89V329.289C402.89 327.591 403.223 326.086 403.911 324.742C404.588 323.409 405.545 322.367 406.792 321.636C408.039 320.905 409.522 320.539 411.253 320.539C412.113 320.539 412.951 320.636 413.736 320.819C414.521 321.002 415.262 321.292 415.94 321.668V323.753C415.338 323.345 414.639 323.012 413.854 322.764C413.059 322.517 412.231 322.399 411.371 322.399C409.339 322.399 407.748 323.012 406.598 324.237C405.448 325.463 404.878 327.161 404.878 329.343V360.571H404.868Z" fill="#1F1F27"/>
<path d="M432.355 361.141C429.754 361.141 427.41 360.507 425.293 359.249C423.186 357.991 421.541 356.282 420.348 354.143C419.165 351.993 418.574 349.585 418.574 346.919C418.574 344.253 419.133 341.963 420.24 339.835C421.348 337.707 422.906 336.008 424.895 334.729C426.894 333.45 429.184 332.805 431.786 332.805C434.387 332.805 436.537 333.375 438.472 334.525C440.407 335.675 441.912 337.223 442.987 339.179C444.062 341.136 444.599 343.436 444.599 346.07V347.543H419.875L420.606 345.511C420.38 347.994 420.735 350.273 421.681 352.348C422.627 354.422 424.024 356.078 425.884 357.314C427.744 358.561 429.883 359.174 432.291 359.174C434.322 359.174 436.193 358.744 437.913 357.873C439.622 357.013 441.052 355.637 442.18 353.756L443.761 354.712C442.481 356.862 440.847 358.464 438.88 359.539C436.902 360.614 434.731 361.152 432.355 361.152V361.141ZM420.67 345.833H442.686C442.643 343.576 442.159 341.63 441.213 339.986C440.267 338.352 438.988 337.062 437.343 336.116C435.709 335.17 433.828 334.707 431.721 334.707C429.614 334.707 427.744 335.202 426.131 336.202C424.508 337.201 423.229 338.534 422.294 340.211C421.358 341.888 420.81 343.759 420.66 345.833H420.67ZM432.753 328.161H430.549L436.816 320.647H439.02L432.753 328.161Z" fill="#1F1F27"/>
</svg>
