<svg width="500" height="500" viewBox="0 0 500 500" fill="none" xmlns="http://www.w3.org/2000/svg">
<rect width="500" height="500" fill="#FFE8D3"/>
<path d="M326.717 80.7971L329.347 80.7971C334.915 80.7971 339.428 85.3118 339.43 90.88C339.43 90.8801 339.43 90.8802 339.43 90.8803L339.43 136.957C339.43 142.525 334.915 147.04 329.347 147.04L326.717 147.04C321.15 147.04 316.634 142.525 316.634 136.957L316.634 90.88C316.634 85.3122 321.15 80.7971 326.717 80.7971Z" fill="#FFAE63" stroke="black" stroke-width="1.78654"/>
<path d="M279.41 81.0256L279.41 81.0256C284.032 81.0339 287.771 84.7854 287.763 89.4063C287.763 89.4066 287.763 89.407 287.763 89.4073L287.618 137.884L287.618 137.885C287.61 142.507 283.858 146.246 279.237 146.238L273.063 146.226C268.441 146.218 264.702 142.466 264.71 137.845C264.71 137.845 264.71 137.845 264.71 137.844L264.855 89.368L264.855 89.3669C264.863 84.7452 268.615 81.0059 273.237 81.0141C273.237 81.0141 273.237 81.0141 273.237 81.0141L279.41 81.0256Z" fill="#FFAE63" stroke="black" stroke-width="1.78654"/>
<path d="M288.301 186.323L288.301 186.323L288.301 410.068C288.301 415.478 283.917 419.864 278.505 419.864L274.504 419.864C269.095 419.864 264.708 415.48 264.708 410.068L264.708 186.323C264.708 180.914 269.093 176.528 274.504 176.528L278.505 176.528C283.917 176.528 288.303 180.912 288.301 186.323Z" fill="#FFAE63" stroke="black" stroke-width="1.78654"/>
<path d="M327.394 176.528L328.995 176.528C335.13 176.528 340.107 181.503 340.107 187.638L340.107 363.252C340.107 369.389 335.132 374.364 328.995 374.364L327.394 374.364C321.257 374.364 316.282 369.389 316.282 363.252L316.282 187.64C316.282 181.502 321.257 176.528 327.394 176.528Z" fill="#FFAE63" stroke="black" stroke-width="1.78654"/>
<path d="M171.266 300.52L174.01 300.52C179.769 300.52 184.435 305.189 184.435 310.945L184.435 373.098C184.435 378.856 179.769 383.523 174.01 383.523L171.266 383.523C165.507 383.523 160.841 378.856 160.841 373.098L160.841 310.945C160.841 305.187 165.507 300.52 171.266 300.52Z" fill="#FFAE63" stroke="black" stroke-width="1.78654"/>
<path d="M222.197 317.785L227 317.785C231.904 317.785 235.881 321.76 235.881 326.667L235.881 409.214C235.881 414.118 231.906 418.096 227 418.096L222.197 418.096C217.293 418.096 213.315 414.12 213.315 409.214L213.315 326.667C213.315 321.762 217.291 317.785 222.197 317.785Z" fill="#FFAE63" stroke="black" stroke-width="1.78654"/>
</svg>
