<svg width="500" height="500" viewBox="0 0 500 500" fill="none" xmlns="http://www.w3.org/2000/svg">
<rect width="500" height="500" fill="#FFE8D3"/>
<path d="M312.675 67.0687L314.825 67.0687C319.376 67.0687 323.066 70.7596 323.068 75.3118C323.068 75.3119 323.068 75.312 323.068 75.3121L323.068 112.982C323.068 117.534 319.376 121.225 314.825 121.225L312.675 121.225C308.123 121.225 304.431 117.534 304.431 112.982L304.431 75.3118C304.431 70.76 308.123 67.0687 312.675 67.0687Z" fill="#FFAE63" stroke="black" stroke-width="1.46056"/>
<path d="M274 67.2555L274 67.2555C277.778 67.2623 280.835 70.3295 280.829 74.1074C280.829 74.1076 280.829 74.1077 280.829 74.1079L280.711 113.739L280.711 113.74C280.704 117.519 277.636 120.576 273.858 120.569L268.811 120.56C265.033 120.553 261.976 117.486 261.982 113.708C261.982 113.707 261.982 113.707 261.982 113.707L262.101 74.0757L262.101 74.0749C262.107 70.2965 265.175 67.2394 268.953 67.2462C268.953 67.2462 268.953 67.2462 268.953 67.2462L274 67.2555Z" fill="#FFAE63" stroke="black" stroke-width="1.46056"/>
<path d="M281.268 153.34L281.268 153.341L281.268 336.261C281.268 340.683 277.684 344.269 273.26 344.269L269.989 344.269C265.566 344.269 261.98 340.685 261.98 336.261L261.98 153.341C261.98 148.918 265.565 145.332 269.989 145.332L273.26 145.332C277.684 145.332 281.27 148.917 281.268 153.34Z" fill="#FFAE63" stroke="black" stroke-width="1.46056"/>
<path d="M313.229 145.333L314.537 145.333C319.553 145.333 323.622 149.4 323.622 154.415L323.622 297.987C323.622 303.004 319.555 307.071 314.537 307.071L313.229 307.071C308.211 307.071 304.144 303.004 304.144 297.987L304.144 154.417C304.144 149.399 308.211 145.333 313.229 145.333Z" fill="#FFAE63" stroke="black" stroke-width="1.46056"/>
<path d="M185.587 246.701L187.831 246.701C192.539 246.701 196.354 250.518 196.354 255.224L196.354 306.036C196.354 310.744 192.539 314.559 187.831 314.559L185.587 314.559C180.879 314.559 177.064 310.744 177.064 306.036L177.064 255.224C177.064 250.516 180.879 246.701 185.587 246.701Z" fill="#FFAE63" stroke="black" stroke-width="1.46056"/>
<path d="M227.226 260.816L231.152 260.816C235.161 260.816 238.413 264.066 238.413 268.077L238.413 335.563C238.413 339.572 235.163 342.824 231.152 342.824L227.226 342.824C223.216 342.824 219.965 339.574 219.965 335.563L219.965 268.077C219.965 264.068 223.215 260.816 227.226 260.816Z" fill="#FFAE63" stroke="black" stroke-width="1.46056"/>
<path d="M165.288 407.384V400.664C170.184 400.664 171.96 398.648 171.96 395.096L171.912 374.696H178.968V394.568C178.968 402.68 174.552 407.384 165.288 407.384ZM196.299 407.624C189.387 407.624 184.539 401.96 184.539 395.048C184.539 388.232 190.107 382.52 197.403 382.52C204.843 382.52 210.315 387.896 210.315 395.048V407H203.835V404.216C202.155 406.328 199.563 407.624 196.299 407.624ZM197.403 401.24C200.907 401.24 203.499 398.456 203.499 395.096C203.499 391.736 200.907 388.952 197.403 388.952C193.899 388.952 191.355 391.736 191.355 395.096C191.355 398.456 193.899 401.24 197.403 401.24ZM245.973 382.376C253.701 382.376 257.637 387.944 257.637 394.568V407H250.821V395.72C250.821 392.072 249.237 389 245.493 389C241.797 389 240.213 392.024 240.213 395.624V407H233.397V395.672C233.397 392.024 231.813 389 228.117 389C224.325 389 222.837 392.072 222.837 395.672V407H216.021V394.568C216.021 387.944 219.909 382.376 227.589 382.376C232.149 382.376 235.461 384.392 236.853 387.656C238.341 384.392 241.701 382.376 245.973 382.376ZM293.316 382.376C301.044 382.376 304.98 387.944 304.98 394.568V407H298.164V395.72C298.164 392.072 296.58 389 292.836 389C289.14 389 287.556 392.024 287.556 395.624V407H280.74V395.672C280.74 392.024 279.156 389 275.46 389C271.668 389 270.18 392.072 270.18 395.672V407H263.364V394.568C263.364 387.944 267.252 382.376 274.932 382.376C279.492 382.376 282.804 384.392 284.196 387.656C285.684 384.392 289.044 382.376 293.316 382.376ZM322.468 407.624C315.076 407.624 309.508 402.488 309.508 394.904C309.508 388.04 314.5 382.376 321.844 382.376C329.38 382.376 333.748 387.944 333.748 394.424V396.44H316.084C316.564 399.608 319.012 401.72 322.42 401.72C325.012 401.72 327.172 400.472 328.276 398.264L333.508 400.904C331.444 405.176 327.508 407.624 322.468 407.624ZM316.372 392.648H326.98C326.692 390.2 324.676 388.328 321.796 388.328C318.82 388.328 316.852 390.248 316.372 392.648Z" fill="black"/>
</svg>
