<?xml version="1.0" encoding="UTF-8"?>
<svg id="Layer_1" data-name="Layer 1" xmlns="http://www.w3.org/2000/svg" viewBox="0 0 1080 1080">
  <defs>
    <style>
      .cls-1 {
        fill: #fff;
      }

      .cls-2 {
        fill: #231f20;
      }
    </style>
  </defs>
  <rect class="cls-2" width="1080" height="1080"/>
  <path class="cls-1" d="m292,564.36c165.18-8.95,330.82-9.02,496,0-165.18,9.02-330.82,8.95-496,0h0Z"/>
  <path class="cls-1" d="m400.25,625.38c47.8-5.16,95.7-6.33,143.68-6.5,47.98.14,95.88,1.31,143.68,6.5-47.8,5.19-95.7,6.35-143.68,6.5-47.98-.17-95.88-1.34-143.68-6.5h0Z"/>
  <path class="cls-1" d="m465.7,686.39c25.91-5.15,52-6.32,78.24-6.5,26.24.15,52.33,1.32,78.24,6.5-25.91,5.18-52,6.35-78.24,6.5-26.24-.18-52.33-1.35-78.24-6.5h0Z"/>
  <path class="cls-1" d="m543.29,558.94c-1.93-26.64-3.47-55.88-4.55-82.67-.28-6.89-.79-13.78-1.23-20.67-.88-13.82.09-27.6,1.84-41.33.93-6.89,2.08-13.78,3.94-20.67h1.3c3.57,13.63,5,27.41,5.85,41.33.94,13.79-.74,27.57-1.3,41.33-.4,10.29-1.37,31.05-1.95,41.33-.8,13.78-1.57,27.56-2.6,41.33h-1.3Z"/>
</svg>